# xmcd
#
# Track frame offsets:
#	150
#	12156
#	44358
#	80382
#	105377
#
# Disc length: 1733 seconds
#
# Revision: 0
# Processed by: cddbd v1.5.2PL0 Copyright (c) Steve Scherf et al.
# Submitted via: audiograbber 1.83.01
#
DISCID=2d06c305
DTITLE=Kortezman - My Love [CDs)
DYEAR=2006
DGENRE=House
TTITLE0=My Love (Radio Edit)
TTITLE1=My Love (Rize Mix)
TTITLE2=My Love (Diego Ray Incredible Mix)
TTITLE3=My Love (Kortezman Vocal Mix)
TTITLE4=My Love (Kortezman Dub)
EXTD=
EXTT0=
EXTT1=
EXTT2=
EXTT3=
EXTT4=
PLAYORDER=
